<?xml version="1.0" encoding="UTF-8"?>
<svg version="1.1" xmlns="http://www.w3.org/2000/svg" width="199" height="161">
<path d="M0 0 C2.40234375 2.1796875 2.40234375 2.1796875 4.9375 4.875 C8.09574897 8.22362255 10.93966388 10.80640159 15 13 C15 12.34 15 11.68 15 11 C15.66 11 16.32 11 17 11 C17 10.34 17 9.68 17 9 C18.64453125 7.37890625 18.64453125 7.37890625 20.8125 5.5625 C23.8090993 3.06528752 23.8090993 3.06528752 26.44921875 0.21484375 C27.21685547 -0.38650391 27.21685547 -0.38650391 28 -1 C34.13786834 -0.25037236 39.57471662 2.81333075 45.125 5.375 C46.22199219 5.87 47.31898438 6.365 48.44921875 6.875 C49.49980469 7.35710937 50.55039063 7.83921875 51.6328125 8.3359375 C52.59074707 8.77470215 53.54868164 9.2134668 54.53564453 9.66552734 C58.207693 11.65397761 59.67295932 13.01887796 61 17 C61.1423002 18.78695607 61.2307299 20.578422 61.28808594 22.37011719 C61.34122955 24.0176297 61.34122955 24.0176297 61.39544678 25.69842529 C61.51957323 30.72115938 61.60994743 35.74380248 61.6796875 40.76757812 C61.72644435 43.41583414 61.79470031 46.06380049 61.88476562 48.7109375 C62.0125231 52.53222081 62.0682342 56.34879555 62.109375 60.171875 C62.16301208 61.35126648 62.21664917 62.53065796 62.27191162 63.74578857 C62.26454217 67.16156032 62.12890986 69.7722918 61 73 C56.28877401 77.64412916 51.424409 79.7151182 45 81 C44.67 66.15 44.34 51.3 44 36 C43.34 36 42.68 36 42 36 C41.67 51.84 41.34 67.68 41 84 C24.84042553 88.61702128 24.84042553 88.61702128 19 89 C18.22011719 89.0515625 17.44023438 89.103125 16.63671875 89.15625 C6.62359482 89.51227218 -3.7160831 87.71356676 -13 84 C-13.33 67.83 -13.66 51.66 -14 35 C-14.99 35.495 -14.99 35.495 -16 36 C-16.33 50.85 -16.66 65.7 -17 81 C-17.99 81.495 -17.99 81.495 -19 82 C-21.4609375 80.890625 -21.4609375 80.890625 -24.375 79.25 C-25.33148438 78.71890625 -26.28796875 78.1878125 -27.2734375 77.640625 C-28.17320313 77.09921875 -29.07296875 76.5578125 -30 76 C-31.05834045 75.37337212 -31.05834045 75.37337212 -32.13806152 74.73408508 C-34 73 -34 73 -34.50793457 70.55363464 C-34.51111694 69.58355972 -34.51429932 68.6134848 -34.51757812 67.61401367 C-34.53018677 66.51244431 -34.54279541 65.41087494 -34.55578613 64.27592468 C-34.54768921 63.08529922 -34.53959229 61.89467377 -34.53125 60.66796875 C-34.5350769 59.44346512 -34.53890381 58.21896149 -34.54284668 56.95735168 C-34.5455712 54.36405619 -34.53817253 51.77073347 -34.52148438 49.17749023 C-34.50013948 45.21340273 -34.52124178 41.25113924 -34.546875 37.28710938 C-34.54423074 34.76822517 -34.53910375 32.2493421 -34.53125 29.73046875 C-34.53934692 28.54591599 -34.54744385 27.36136322 -34.55578613 26.14091492 C-34.48440616 19.8511822 -34.40708281 15.68443103 -30 11 C-28.23583984 9.75561523 -28.23583984 9.75561523 -26.4609375 9.05859375 C-25.80254883 8.78724609 -25.14416016 8.51589844 -24.46582031 8.23632812 C-23.77584961 7.97271484 -23.08587891 7.70910156 -22.375 7.4375 C-20.93910336 6.85532694 -19.5042038 6.2706886 -18.0703125 5.68359375 C-17.37454102 5.40241699 -16.67876953 5.12124023 -15.96191406 4.83154297 C-12.52349235 3.374193 -9.27173782 1.57160158 -6.015625 -0.25 C-3.42949822 -1.21227973 -2.51448496 -1.14425893 0 0 Z M4 15 C5.74676919 18.49353838 6.91405215 20.13945763 9.625 22.75 C10.25664063 23.36359375 10.88828125 23.9771875 11.5390625 24.609375 C12.02117187 25.06828125 12.50328125 25.5271875 13 26 C14.1055189 25.06409496 15.20935453 24.12620142 16.3125 23.1875 C16.92738281 22.66542969 17.54226562 22.14335938 18.17578125 21.60546875 C20.68404567 19.39992095 20.68404567 19.39992095 23 17 C23 16.34 23 15.68 23 15 C16.73 15 10.46 15 4 15 Z M13 31 C11.25598669 37.01598792 9.53309326 43.03770442 7.83007812 49.06542969 C7.29266175 50.96535464 6.75247631 52.86449941 6.20898438 54.76269531 C5.48063335 57.31757005 4.76929961 59.87659132 4.0625 62.4375 C3.83925049 63.2106958 3.61600098 63.9838916 3.38598633 64.78051758 C2.19717167 69.16430183 1.57994507 72.54242846 3 77 C4.68726843 79.36030838 4.68726843 79.36030838 6.875 81.3125 C7.57367188 81.98925781 8.27234375 82.66601562 8.9921875 83.36328125 C10.99893482 85.19648339 10.99893482 85.19648339 14 86 C16.03984119 84.71056101 16.03984119 84.71056101 18 82.8125 C18.680625 82.20019531 19.36125 81.58789062 20.0625 80.95703125 C20.701875 80.31121094 21.34125 79.66539062 22 79 C22.598125 78.42636719 23.19625 77.85273438 23.8125 77.26171875 C26.51554769 72.11347989 23.44847032 64.2748071 22.00390625 58.8515625 C21.81030014 58.1129599 21.61669403 57.3743573 21.41722107 56.6133728 C21.01049856 55.06821803 20.60113097 53.52375725 20.18920898 51.97998047 C19.55920592 49.61262184 18.94228162 47.24210126 18.32617188 44.87109375 C17.92786448 43.36437662 17.52880301 41.85785858 17.12890625 40.3515625 C16.85379967 39.28912827 16.85379967 39.28912827 16.57313538 38.20523071 C15.51080124 34.21436176 15.51080124 34.21436176 13 31 Z " fill="#950624" transform="translate(89,66)"/>
<path d="M0 0 C8.21265133 3.20154204 12.74793606 13.42612827 16.3671875 21.08984375 C23.9574887 40.33507491 23.72420812 60.11967891 15.875 79.25 C11.53798589 88.10965918 5.93758185 96.68742379 -1.3125 103.4375 C-1.9725 103.4375 -2.6325 103.4375 -3.3125 103.4375 C-4.5669805 100.92853899 -4.43038012 99.23173034 -4.42260742 96.42456055 C-4.42347603 94.85734505 -4.42347603 94.85734505 -4.42436218 93.25846863 C-4.42225235 92.12516617 -4.42014252 90.99186371 -4.41796875 89.82421875 C-4.43142428 87.438142 -4.44644734 85.05207366 -4.46289062 82.66601562 C-4.48574043 78.89334016 -4.49998883 75.12161275 -4.48754883 71.34887695 C-4.47874769 67.71496033 -4.50760205 64.08293934 -4.54296875 60.44921875 C-4.53073776 59.32198898 -4.51850677 58.19475922 -4.50590515 57.03337097 C-4.45566943 51.57914531 -4.45566943 51.57914531 -6.49420166 46.68565369 C-9.58573694 43.97225126 -13.41415961 42.20934007 -17.1484375 40.54296875 C-18.21191406 40.06279297 -19.27539062 39.58261719 -20.37109375 39.08789062 C-21.46550781 38.60513672 -22.55992187 38.12238281 -23.6875 37.625 C-24.80511719 37.12291016 -25.92273438 36.62082031 -27.07421875 36.10351562 C-29.81662405 34.87294915 -32.5626325 33.65127636 -35.3125 32.4375 C-33.92105455 28.72950023 -32.85901713 26.6747137 -29.75 24.1875 C-26.60403251 21.57060118 -23.67914733 18.85879746 -20.8125 15.9375 C-17.36143616 12.44478539 -13.83054767 9.12104033 -10.08203125 5.94921875 C-8.58564986 4.67085319 -7.15872285 3.31186375 -5.75 1.9375 C-3.3125 0.4375 -3.3125 0.4375 0 0 Z " fill="#DBA6B2" transform="translate(157.3125,30.5625)"/>
<path d="M0 0 C2.80859375 2.2578125 2.80859375 2.2578125 5.4375 5.125 C8.57528657 8.46061173 11.6907682 11.72078463 15.1875 14.6875 C19.34935112 18.24134406 23.17077654 22.09436188 27 26 C27.57105469 26.53109375 28.14210937 27.0621875 28.73046875 27.609375 C30 29 30 29 30 31 C29.23333008 31.33733154 28.46666016 31.67466309 27.67675781 32.0222168 C24.81672502 33.28826433 21.9624016 34.56621287 19.11132812 35.85229492 C17.27624468 36.67572363 15.43502384 37.48543022 13.59375 38.29492188 C12.43359375 38.82021484 11.2734375 39.34550781 10.078125 39.88671875 C9.00981445 40.36326904 7.94150391 40.83981934 6.84082031 41.33081055 C2.69542066 43.76653566 0.51546524 46.45360429 -1 51 C-1.08230837 52.60051054 -1.10744016 54.20428908 -1.09765625 55.80688477 C-1.09435303 56.78121964 -1.0910498 57.7555545 -1.08764648 58.75941467 C-1.07934814 59.80947189 -1.0710498 60.85952911 -1.0625 61.94140625 C-1.05871338 63.02002426 -1.05492676 64.09864227 -1.05102539 65.20994568 C-1.03879001 68.66083726 -1.02015658 72.11164612 -1 75.5625 C-0.97350488 80.10546643 -0.95346297 84.64839199 -0.9375 89.19140625 C-0.92920166 90.2434877 -0.92090332 91.29556915 -0.91235352 92.37953186 C-0.90739868 93.83630592 -0.90739868 93.83630592 -0.90234375 95.32250977 C-0.89448853 96.60799461 -0.89448853 96.60799461 -0.88647461 97.91944885 C-1 100 -1 100 -2 102 C-12.76224682 97.58844837 -18.72631543 83.08729064 -23 73 C-29.61904368 55.41029223 -28.21637082 36.10596512 -21.375 18.8125 C-11.59785877 -2.75616833 -11.59785877 -2.75616833 0 0 Z " fill="#DBA6B2" transform="translate(53,32)"/>
<path d="M0 0 C4.9299259 2.81999877 8.18110201 7.48720401 10.6875 12.5 C11.43997843 19.48729969 11.36660721 25.10787416 7.11328125 30.8828125 C3.18993408 35.33285559 -0.98950309 38.0728285 -6.92578125 38.8359375 C-14.04321749 38.93893947 -19.55374716 38.08615705 -24.84375 33.0390625 C-29.77347184 27.39281133 -30.88394848 22.99223594 -30.7578125 15.61328125 C-29.9447932 9.92927789 -26.98109351 5.80382174 -22.68359375 2.09375 C-16.12845633 -2.50634643 -7.35152219 -3.22161301 0 0 Z " fill="#960423" transform="translate(112.3125,21.5)"/>
<path d="M0 0 C1.32 0.66 2.64 1.32 4 2 C4 18.66666667 4 35.33333333 4 52 C5.32 52.66 6.64 53.32 8 54 C6.35 53.67 4.7 53.34 3 53 C2.67 36.83 2.34 20.66 2 4 C1.01 4.495 1.01 4.495 0 5 C-0.33 19.85 -0.66 34.7 -1 50 C-1.99 50.495 -1.99 50.495 -3 51 C-3.66 50.34 -4.32 49.68 -5 49 C-4.34 49 -3.68 49 -3 49 C-3.00666183 48.41562164 -3.01332367 47.83124329 -3.02018738 47.22915649 C-3.08641109 41.16259243 -3.13174637 35.09613054 -3.16479492 29.02929688 C-3.17990804 26.76330395 -3.20039913 24.4973404 -3.22631836 22.23144531 C-3.26259062 18.97974411 -3.2797009 15.72842864 -3.29296875 12.4765625 C-3.30845261 11.45881744 -3.32393646 10.44107239 -3.33988953 9.39248657 C-3.34011612 8.45166229 -3.34034271 7.51083801 -3.34057617 6.54150391 C-3.34723801 5.71099518 -3.35389984 4.88048645 -3.36076355 4.02481079 C-3.24171158 3.35662323 -3.12265961 2.68843567 -3 2 C-2.01 1.34 -1.02 0.68 0 0 Z " fill="#851A2A" transform="translate(73,97)"/>
<path d="M0 0 C4.9299259 2.81999877 8.18110201 7.48720401 10.6875 12.5 C11.46165472 19.68857954 11.21164991 25.09308653 6.9765625 31.07421875 C5.6875 32.5 5.6875 32.5 3.6875 33.5 C3.6875 31.85 3.6875 30.2 3.6875 28.5 C4.6775 28.83 5.6675 29.16 6.6875 29.5 C8.67335203 21.96394615 9.00284199 15.9908123 6.6875 8.5 C6.089375 8.355625 5.49125 8.21125 4.875 8.0625 C3.12599596 7.6127561 1.40072977 7.07107659 -0.3125 6.5 C-0.3125 4.85 -0.3125 3.2 -0.3125 1.5 C-7.81101395 -0.37462849 -13.56373667 -0.0728747 -20.3125 3.5 C-22.06399165 5.08245275 -22.06399165 5.08245275 -23.3125 6.5 C-23.9725 6.5 -24.6325 6.5 -25.3125 6.5 C-25.9725 7.82 -26.6325 9.14 -27.3125 10.5 C-27.3125 6.42407179 -26.14342472 5.40169784 -23.3125 2.5 C-16.43110323 -2.51937176 -7.84903216 -3.36172697 0 0 Z " fill="#881129" transform="translate(112.3125,21.5)"/>
<path d="M0 0 C3 2 3 2 4 5 C4.08826965 6.82532586 4.11763203 8.65374689 4.11352539 10.48120117 C4.11344986 11.60213669 4.11337433 12.7230722 4.11329651 13.87797546 C4.10813522 15.08742325 4.10297394 16.29687103 4.09765625 17.54296875 C4.0962413 18.78170242 4.09482635 20.0204361 4.09336853 21.29670715 C4.08871602 24.58631537 4.0797339 27.8758746 4.06866455 31.16546631 C4.05842629 34.52371623 4.05386574 37.88197333 4.04882812 41.24023438 C4.03779145 47.82684212 4.02104767 54.41341705 4 61 C1.45836978 58.45836978 1.73656572 57.52864531 1.69702148 54.00292969 C1.68037949 52.96134705 1.66373749 51.9197644 1.64659119 50.84661865 C1.63817703 49.71645325 1.62976288 48.58628784 1.62109375 47.421875 C1.60409927 46.26254456 1.5871048 45.10321411 1.56959534 43.90875244 C1.51631588 40.18922428 1.47613197 36.46970691 1.4375 32.75 C1.39350871 29.04463533 1.34668285 25.3393555 1.29469299 21.63409424 C1.26286665 19.3258498 1.23593654 17.01753143 1.21446228 14.70916748 C1.15046492 9.70796144 1.06129352 4.91242561 0 0 Z " fill="#A63A4E" transform="translate(146,78)"/>
<path d="M0 0 C0.63615234 0.56267578 0.63615234 0.56267578 1.28515625 1.13671875 C5.36517338 4.69664579 9.5513476 7.91317997 14 11 C14 10.34 14 9.68 14 9 C14.66 9 15.32 9 16 9 C16.33 8.34 16.66 7.68 17 7 C17.33 7.99 17.66 8.98 18 10 C17.01 10.495 17.01 10.495 16 11 C18.97 11.495 18.97 11.495 22 12 C22 12.33 22 12.66 22 13 C15.73 13 9.46 13 3 13 C4.32 12.34 5.64 11.68 7 11 C7 10.01 7 9.02 7 8 C5.02 8.66 3.04 9.32 1 10 C1.20625 9.0925 1.4125 8.185 1.625 7.25 C2.02486177 3.78453137 1.65475295 2.90529144 0 0 Z " fill="#8D1F36" transform="translate(90,68)"/>
<path d="M0 0 C0 3 0 3 -2.5 5.6875 C-3.325 6.450625 -4.15 7.21375 -5 8 C-4.01 9.485 -4.01 9.485 -3 11 C-6.63 11 -10.26 11 -14 11 C-14.33 10.01 -14.66 9.02 -15 8 C-15.33 8 -15.66 8 -16 8 C-16.33 5.69 -16.66 3.38 -17 1 C-14.36 2.98 -11.72 4.96 -9 7 C-5.46627288 5.03681826 -2.75520215 2.95929119 0 0 Z " fill="#8D1B31" transform="translate(111,144)"/>
<path d="M0 0 C1 3 1 3 1 5 C1.66 5.33 2.32 5.66 3 6 C2.67 6.99 2.34 7.98 2 9 C1.01 9 0.02 9 -1 9 C-1.48108275 10.41601714 -1.95978141 11.83284437 -2.4375 13.25 C-2.70433594 14.03890625 -2.97117187 14.8278125 -3.24609375 15.640625 C-3.91954708 17.74821988 -4.49150595 19.84753973 -5 22 C-5.99 22 -6.98 22 -8 22 C-7.23565759 19.45622013 -6.46377703 16.91513859 -5.6875 14.375 C-5.47416016 13.66214844 -5.26082031 12.94929688 -5.04101562 12.21484375 C-3.71699945 7.90685081 -2.14463344 3.98738299 0 0 Z " fill="#DAB2BA" transform="translate(35,44)"/>
<path d="M0 0 C6.64468212 2.38205585 6.64468212 2.38205585 8.4375 5.5 C10.81557222 9.30491555 13.78627799 9.68752921 18 11 C18 11.33 18 11.66 18 12 C10.77866498 11.5019769 6.63160919 9.90862068 1.625 4.375 C0 2 0 2 0 0 Z " fill="#8D1830" transform="translate(84,48)"/>
<path d="M0 0 C0 0.66 0 1.32 0 2 C-2.26504965 3.19984797 -4.53589888 4.38494769 -6.8125 5.5625 C-7.45509766 5.90474609 -8.09769531 6.24699219 -8.75976562 6.59960938 C-10.46926395 7.4765023 -12.23321294 8.24515617 -14 9 C-14.99 8.67 -15.98 8.34 -17 8 C-15.35 7.34 -13.7 6.68 -12 6 C-12 5.34 -12 4.68 -12 4 C-8.07408333 0.49471726 -5.18383169 0 0 0 Z " fill="#E3B6C2" transform="translate(74,65)"/>
<path d="M0 0 C0.66 0 1.32 0 2 0 C2.66 0.99 3.32 1.98 4 3 C5.32 2.67 6.64 2.34 8 2 C8.33 2.99 8.66 3.98 9 5 C7.35 5.66 5.7 6.32 4 7 C4.33 9.97 4.66 12.94 5 16 C2.79334596 12.69001895 2.21737905 10.17978564 1.375 6.3125 C1.11460938 5.13300781 0.85421875 3.95351562 0.5859375 2.73828125 C0.39257812 1.83464844 0.19921875 0.93101563 0 0 Z " fill="#8D112C" transform="translate(103,98)"/>
<path d="M0 0 C0 0.33 0 0.66 0 1 C-0.56847656 1.03738281 -1.13695313 1.07476563 -1.72265625 1.11328125 C-8.466553 1.68746945 -14.26220891 2.76349405 -19 8 C-19.66 8 -20.32 8 -21 8 C-21.66 9.32 -22.32 10.64 -23 12 C-23 7.92407179 -21.83092472 6.90169784 -19 4 C-12.99349299 -0.38121687 -7.23041223 -0.47848316 0 0 Z " fill="#92233B" transform="translate(108,20)"/>
<path d="M0 0 C-1 3 -1 3 -3.109375 4.3515625 C-4.41648437 4.98191406 -4.41648437 4.98191406 -5.75 5.625 C-6.61109375 6.05039063 -7.4721875 6.47578125 -8.359375 6.9140625 C-10.91805532 7.96630086 -13.27582783 8.55903688 -16 9 C-16 8.34 -16 7.68 -16 7 C-13.71070947 5.82845707 -11.41881638 4.66261926 -9.125 3.5 C-8.47402344 3.16613281 -7.82304688 2.83226563 -7.15234375 2.48828125 C-2.2265625 0 -2.2265625 0 0 0 Z " fill="#94223D" transform="translate(78,69)"/>
<path d="M0 0 C0.33 0 0.66 0 1 0 C1.54385425 7.25139001 1.57709546 12.51831255 -2.7109375 18.57421875 C-4 20 -4 20 -6 21 C-6 19.35 -6 17.7 -6 16 C-5.01 16.33 -4.02 16.66 -3 17 C-2.22588971 14.16159561 -1.78066072 11.42689038 -1.5 8.5 C-1.21933928 5.57310962 -0.77411029 2.83840439 0 0 Z " fill="#8B2B41" transform="translate(122,34)"/>
<path d="M0 0 C2.5 1.375 2.5 1.375 5 3 C5 3.66 5 4.32 5 5 C7.97 5 10.94 5 14 5 C14 5.33 14 5.66 14 6 C7.34949576 6.24991456 1.43013467 5.73955334 -5 4 C-5 3.67 -5 3.34 -5 3 C-3.35 3 -1.7 3 0 3 C0 2.01 0 1.02 0 0 Z " fill="#8B112A" transform="translate(86,148)"/>
<path d="M0 0 C2.78162695 0.63046603 5.28492526 1.47315233 7.890625 2.62890625 C8.59960938 2.94150391 9.30859375 3.25410156 10.0390625 3.57617188 C11.13347656 4.0644043 11.13347656 4.0644043 12.25 4.5625 C12.99507812 4.89185547 13.74015625 5.22121094 14.5078125 5.56054688 C16.33980368 6.37085066 18.17007345 7.18504434 20 8 C16.49402908 9.0131619 15.01399617 8.9018916 11.6875 7.3125 C10.90890625 6.94253906 10.1303125 6.57257813 9.328125 6.19140625 C6.14905426 4.5645328 3.06806136 2.82778124 0 1 C0 0.67 0 0.34 0 0 Z " fill="#90253D" transform="translate(126,69)"/>
<path d="M0 0 C0 4.18742088 -2.2202137 6.13076513 -5 9 C-7.27563693 11.07346257 -9.611078 13.0585706 -12 15 C-12.66 14.67 -13.32 14.34 -14 14 C-9.38 9.38 -4.76 4.76 0 0 Z " fill="#E4B9C3" transform="translate(141,42)"/>
<path d="M0 0 C1.32 0.66 2.64 1.32 4 2 C2.68 2.33 1.36 2.66 0 3 C-0.33 8.61 -0.66 14.22 -1 20 C-1.33 20 -1.66 20 -2 20 C-2.24798276 17.04213336 -2.47411854 14.08538702 -2.6875 11.125 C-2.76033203 10.28324219 -2.83316406 9.44148438 -2.90820312 8.57421875 C-2.96298828 7.76855469 -3.01777344 6.96289062 -3.07421875 6.1328125 C-3.13182373 5.38918457 -3.18942871 4.64555664 -3.2487793 3.87939453 C-3.16668213 3.25919434 -3.08458496 2.63899414 -3 2 C-2.01 1.34 -1.02 0.68 0 0 Z " fill="#94122E" transform="translate(73,97)"/>
<path d="M0 0 C2.67901932 2.31881505 3.66204403 4.31814468 4.6875 7.6875 C4.93886719 8.49574219 5.19023437 9.30398437 5.44921875 10.13671875 C5.63097656 10.75160156 5.81273437 11.36648437 6 12 C4.35 12 2.7 12 1 12 C1.33 10.02 1.66 8.04 2 6 C1.34 5.67 0.68 5.34 0 5 C0 3.35 0 1.7 0 0 Z " fill="#DCB5BD" transform="translate(169,45)"/>
<path d="M0 0 C0 3 0 3 -2.5 5.6875 C-3.325 6.450625 -4.15 7.21375 -5 8 C-4.01 9.485 -4.01 9.485 -3 11 C-4.65 10.67 -6.3 10.34 -8 10 C-8 7 -8 7 -6.25 5.17578125 C-5.5075 4.56089844 -4.765 3.94601563 -4 3.3125 C-3.2575 2.68988281 -2.515 2.06726563 -1.75 1.42578125 C-1.1725 0.95527344 -0.595 0.48476562 0 0 Z " fill="#962E44" transform="translate(111,144)"/>
<path d="M0 0 C0.99 0.33 1.98 0.66 3 1 C3.66 0.67 4.32 0.34 5 0 C4.54917531 1.46067199 4.08906463 2.91848032 3.625 4.375 C3.36976562 5.18710938 3.11453125 5.99921875 2.8515625 6.8359375 C2 9 2 9 0 11 C0 7.33333333 0 3.66666667 0 0 Z " fill="#931C34" transform="translate(100,90)"/>
<path d="M0 0 C1.485 0.99 1.485 0.99 3 2 C3.22107787 4.7885289 3.28107535 7.34653181 3.1875 10.125 C3.17396484 10.87910156 3.16042969 11.63320312 3.14648438 12.41015625 C3.11109985 14.27374127 3.05729167 16.13695978 3 18 C2.67 18 2.34 18 2 18 C1.93941406 17.20335938 1.87882813 16.40671875 1.81640625 15.5859375 C1.20332134 7.75667303 1.20332134 7.75667303 0 0 Z " fill="#95203C" transform="translate(146,78)"/>
<path d="M0 0 C0.33 0.99 0.66 1.98 1 3 C-0.28813342 3.83878455 -1.58063256 4.67086783 -2.875 5.5 C-3.59429687 5.9640625 -4.31359375 6.428125 -5.0546875 6.90625 C-7 8 -7 8 -9 8 C-8.67 6.68 -8.34 5.36 -8 4 C-6.35 4 -4.7 4 -3 4 C-3 3.34 -3 2.68 -3 2 C-2.01 2 -1.02 2 0 2 C0 1.34 0 0.68 0 0 Z " fill="#8D132C" transform="translate(148,137)"/>
<path d="M0 0 C1.65 0.33 3.3 0.66 5 1 C4.8125 3.375 4.8125 3.375 4 6 C1.4375 7.3125 1.4375 7.3125 -1 8 C-0.67 5.36 -0.34 2.72 0 0 Z " fill="#9A1837" transform="translate(113,136)"/>
<path d="M0 0 C0 3.69418201 -1.28179295 5.77836178 -3 9 C-4.32 8.34 -5.64 7.68 -7 7 C-4.69 4.69 -2.38 2.38 0 0 Z " fill="#8A112A" transform="translate(112,82)"/>
<path d="M0 0 C2.64 1.98 5.28 3.96 8 6 C7.34 6.66 6.68 7.32 6 8 C3.875 7.625 3.875 7.625 2 7 C1.34 4.69 0.68 2.38 0 0 Z " fill="#DBB1B9" transform="translate(60,40)"/>
<path d="M0 0 C1.17539996 0.92652701 2.34010577 1.86663387 3.5 2.8125 C4.1496875 3.33457031 4.799375 3.85664062 5.46875 4.39453125 C7 6 7 6 7 9 C2.97449681 7.6581656 2.11714364 5.5772427 0 2 C0 1.34 0 0.68 0 0 Z " fill="#DBB2BA" transform="translate(68,47)"/>
<path d="M0 0 C0.33 0 0.66 0 1 0 C1 3.63 1 7.26 1 11 C0.01 11.495 0.01 11.495 -1 12 C-1.66 11.34 -2.32 10.68 -3 10 C-2.34 10 -1.68 10 -1 10 C-0.67 6.7 -0.34 3.4 0 0 Z " fill="#881730" transform="translate(71,136)"/>
<path d="M0 0 C0.66 0.33 1.32 0.66 2 1 C1.34 3.64 0.68 6.28 0 9 C-0.66 9 -1.32 9 -2 9 C-2.25 3.375 -2.25 3.375 0 0 Z " fill="#9C2D46" transform="translate(92,128)"/>
<path d="M0 0 C-2.93828597 2.50298434 -5.17902761 3.46930939 -9 4 C-9 3.34 -9 2.68 -9 2 C-3.375 -1.125 -3.375 -1.125 0 0 Z " fill="#861531" transform="translate(71,74)"/>
<path d="M0 0 C0.33 0.99 0.66 1.98 1 3 C-0.65 4.65 -2.3 6.3 -4 8 C-4 6.35 -4 4.7 -4 3 C-3.01 3.33 -2.02 3.66 -1 4 C-0.67 2.68 -0.34 1.36 0 0 Z " fill="#891832" transform="translate(120,47)"/>
<path d="M0 0 C2.79872437 2.52788007 4.45773019 4.20411134 5 8 C3.0625 7.375 3.0625 7.375 1 6 C0.25 2.875 0.25 2.875 0 0 Z " fill="#DBB4BB" transform="translate(164,37)"/>
</svg>
